<mxfile host="65bd71144e" scale="5" border="10">
    <diagram id="mpP8sGz9FHktHrAXvyJB" name="ページ1">
        <mxGraphModel dx="444" dy="753" grid="1" gridSize="10" guides="1" tooltips="1" connect="1" arrows="1" fold="1" page="1" pageScale="1" pageWidth="1169" pageHeight="827" background="#ffffff" math="0" shadow="0">
            <root>
                <mxCell id="0"/>
                <mxCell id="1" parent="0"/>
                <mxCell id="114" style="edgeStyle=none;html=1;rounded=0;endArrow=none;endFill=0;exitX=1;exitY=0.5;exitDx=0;exitDy=0;" parent="1" source="118" target="113" edge="1">
                    <mxGeometry relative="1" as="geometry">
                        <mxPoint x="290" y="510" as="sourcePoint"/>
                    </mxGeometry>
                </mxCell>
                <mxCell id="106" style="edgeStyle=none;html=1;rounded=0;endArrow=none;endFill=0;" parent="1" source="104" target="105" edge="1">
                    <mxGeometry relative="1" as="geometry"/>
                </mxCell>
                <mxCell id="110" style="edgeStyle=none;rounded=0;html=1;entryX=0.5;entryY=0;entryDx=0;entryDy=0;endArrow=none;endFill=0;" parent="1" source="104" target="118" edge="1">
                    <mxGeometry relative="1" as="geometry">
                        <mxPoint x="275" y="480" as="targetPoint"/>
                    </mxGeometry>
                </mxCell>
                <mxCell id="104" value=": 日記&lt;br&gt;記録管理" style="ellipse;shape=umlControl;whiteSpace=wrap;html=1;" parent="1" vertex="1">
                    <mxGeometry x="240" y="220" width="70" height="80" as="geometry"/>
                </mxCell>
                <mxCell id="105" value=": Diary" style="ellipse;shape=umlEntity;whiteSpace=wrap;html=1;" parent="1" vertex="1">
                    <mxGeometry x="505" y="220" width="80" height="80" as="geometry"/>
                </mxCell>
                <mxCell id="107" value="1 : 記録内容を取得する（Diary）" style="html=1;verticalAlign=bottom;endArrow=block;rounded=0;" parent="1" edge="1">
                    <mxGeometry x="-0.0123" y="6" width="80" relative="1" as="geometry">
                        <mxPoint x="369.9999999999998" y="210" as="sourcePoint"/>
                        <mxPoint x="451" y="210" as="targetPoint"/>
                        <mxPoint as="offset"/>
                    </mxGeometry>
                </mxCell>
                <mxCell id="108" value="2 : 日記の文章本体を返す（body）" style="html=1;verticalAlign=bottom;endArrow=open;dashed=1;endSize=8;rounded=0;" parent="1" edge="1">
                    <mxGeometry y="-10" relative="1" as="geometry">
                        <mxPoint x="450" y="249.99999999999994" as="sourcePoint"/>
                        <mxPoint x="370" y="249.99999999999994" as="targetPoint"/>
                        <mxPoint as="offset"/>
                    </mxGeometry>
                </mxCell>
                <mxCell id="111" value="3 : 日記の内容の感情を分析する&lt;br&gt;（body）" style="html=1;verticalAlign=bottom;endArrow=block;rounded=0;" parent="1" edge="1">
                    <mxGeometry x="0.1111" y="-90" width="80" relative="1" as="geometry">
                        <mxPoint x="259.9999999999998" y="340" as="sourcePoint"/>
                        <mxPoint x="260" y="430" as="targetPoint"/>
                        <mxPoint as="offset"/>
                    </mxGeometry>
                </mxCell>
                <mxCell id="112" value="4 : 日記に対する感情分析結果を送信する&lt;br&gt;（eomotion, emotion_degree）" style="html=1;verticalAlign=bottom;endArrow=block;rounded=0;" parent="1" edge="1">
                    <mxGeometry y="10" width="80" relative="1" as="geometry">
                        <mxPoint x="340" y="500" as="sourcePoint"/>
                        <mxPoint x="480" y="500" as="targetPoint"/>
                        <mxPoint as="offset"/>
                    </mxGeometry>
                </mxCell>
                <mxCell id="116" style="edgeStyle=none;rounded=0;html=1;entryX=0;entryY=0.5;entryDx=0;entryDy=0;endArrow=none;endFill=0;" parent="1" source="113" target="115" edge="1">
                    <mxGeometry relative="1" as="geometry"/>
                </mxCell>
                <mxCell id="113" value=": 感情&lt;br&gt;分析管理" style="ellipse;shape=umlControl;whiteSpace=wrap;html=1;" parent="1" vertex="1">
                    <mxGeometry x="510" y="470" width="70" height="80" as="geometry"/>
                </mxCell>
                <mxCell id="115" value=": Analysis" style="ellipse;shape=umlEntity;whiteSpace=wrap;html=1;" parent="1" vertex="1">
                    <mxGeometry x="740" y="470" width="80" height="80" as="geometry"/>
                </mxCell>
                <mxCell id="117" value="5 : 分析結果を追加する&lt;br&gt;（emotion, emotion_degree）" style="html=1;verticalAlign=bottom;endArrow=block;rounded=0;" parent="1" edge="1">
                    <mxGeometry x="-0.0014" y="10" width="80" relative="1" as="geometry">
                        <mxPoint x="610" y="500" as="sourcePoint"/>
                        <mxPoint x="710" y="500.69" as="targetPoint"/>
                        <mxPoint as="offset"/>
                    </mxGeometry>
                </mxCell>
                <mxCell id="118" value=": Emotion AI" style="ellipse;shape=umlEntity;whiteSpace=wrap;html=1;" parent="1" vertex="1">
                    <mxGeometry x="235" y="470" width="80" height="80" as="geometry"/>
                </mxCell>
            </root>
        </mxGraphModel>
    </diagram>
</mxfile>